<svg width="58" height="19" viewBox="0 0 58 19" fill="none" xmlns="http://www.w3.org/2000/svg">
<path d="M13.288 0.959999V18H12.472V9.672H1.144V18H0.304V0.959999H1.144V8.904H12.472V0.959999H13.288ZM22.4935 18.24C21.6615 18.24 20.8775 18.072 20.1415 17.736C19.4055 17.4 18.7655 16.936 18.2215 16.344C17.6775 15.736 17.2535 15.048 16.9495 14.28C16.6455 13.496 16.4935 12.672 16.4935 11.808C16.4935 10.928 16.6455 10.096 16.9495 9.312C17.2695 8.528 17.7015 7.84 18.2455 7.248C18.7895 6.64 19.4295 6.168 20.1655 5.832C20.9015 5.496 21.6775 5.328 22.4935 5.328C23.3255 5.328 24.1015 5.496 24.8215 5.832C25.5575 6.168 26.1975 6.64 26.7415 7.248C27.3015 7.84 27.7335 8.528 28.0375 9.312C28.3575 10.096 28.5175 10.928 28.5175 11.808C28.5175 12.672 28.3655 13.496 28.0615 14.28C27.7575 15.048 27.3255 15.736 26.7655 16.344C26.2215 16.936 25.5815 17.4 24.8455 17.736C24.1255 18.072 23.3415 18.24 22.4935 18.24ZM17.3095 11.832C17.3095 12.872 17.5415 13.824 18.0055 14.688C18.4695 15.536 19.0935 16.216 19.8775 16.728C20.6615 17.224 21.5255 17.472 22.4695 17.472C23.4295 17.472 24.3015 17.216 25.0855 16.704C25.8695 16.192 26.4935 15.504 26.9575 14.64C27.4375 13.76 27.6775 12.808 27.6775 11.784C27.6775 10.744 27.4375 9.792 26.9575 8.928C26.4935 8.064 25.8695 7.376 25.0855 6.864C24.3015 6.352 23.4375 6.096 22.4935 6.096C21.5655 6.096 20.7015 6.36 19.9015 6.888C19.1175 7.4 18.4855 8.096 18.0055 8.976C17.5415 9.84 17.3095 10.792 17.3095 11.832ZM35.2823 18.24C34.3223 18.24 33.4263 18.08 32.5943 17.76C31.7783 17.424 31.0583 16.912 30.4343 16.224L30.8663 15.648C31.5383 16.288 32.2263 16.76 32.9303 17.064C33.6343 17.368 34.4103 17.52 35.2583 17.52C36.4263 17.52 37.3703 17.272 38.0903 16.776C38.8103 16.28 39.1703 15.592 39.1703 14.712C39.1703 14.136 39.0023 13.688 38.6663 13.368C38.3463 13.048 37.8743 12.792 37.2503 12.6C36.6423 12.392 35.8983 12.184 35.0183 11.976C34.1543 11.752 33.4343 11.536 32.8583 11.328C32.2983 11.104 31.8743 10.808 31.5863 10.44C31.2983 10.072 31.1543 9.56 31.1543 8.904C31.1543 8.072 31.3543 7.4 31.7543 6.888C32.1703 6.36 32.7143 5.968 33.3863 5.712C34.0743 5.456 34.8263 5.328 35.6423 5.328C36.6343 5.328 37.4903 5.496 38.2103 5.832C38.9303 6.168 39.4503 6.592 39.7703 7.104L39.2423 7.56C38.8903 7.064 38.3783 6.688 37.7063 6.432C37.0503 6.176 36.3303 6.048 35.5463 6.048C34.9063 6.048 34.3143 6.144 33.7703 6.336C33.2263 6.528 32.7863 6.824 32.4503 7.224C32.1143 7.608 31.9463 8.128 31.9463 8.784C31.9463 9.312 32.0663 9.72 32.3063 10.008C32.5463 10.296 32.9063 10.528 33.3863 10.704C33.8663 10.864 34.4743 11.04 35.2103 11.232C36.1863 11.472 37.0263 11.72 37.7303 11.976C38.4503 12.216 39.0023 12.536 39.3863 12.936C39.7703 13.336 39.9623 13.896 39.9623 14.616C39.9623 15.736 39.5303 16.624 38.6663 17.28C37.8183 17.92 36.6903 18.24 35.2823 18.24ZM52.8409 18H52.0249V11.04C52.0249 9.408 51.7449 8.176 51.1849 7.344C50.6249 6.512 49.8089 6.096 48.7369 6.096C48.0169 6.096 47.3049 6.28 46.6009 6.648C45.9129 7 45.3129 7.488 44.8009 8.112C44.3049 8.72 43.9449 9.416 43.7209 10.2V18H42.9049V0.48H43.7209V8.64C44.2329 7.632 44.9529 6.832 45.8809 6.24C46.8249 5.632 47.8249 5.328 48.8809 5.328C49.5529 5.328 50.1289 5.456 50.6089 5.712C51.1049 5.952 51.5129 6.32 51.8329 6.816C52.1689 7.296 52.4169 7.88 52.5769 8.568C52.7529 9.256 52.8409 10.048 52.8409 10.944V18ZM56.5924 18V5.52H57.4084V18H56.5924ZM56.5924 2.496V0.48H57.4084V2.496H56.5924Z" fill="black"/>
</svg>
